<?xml version="1.0" encoding="UTF-8"?>
<!DOCTYPE svg PUBLIC "-//W3C//DTD SVG 1.1//EN" "http://www.w3.org/Graphics/SVG/1.1/DTD/svg11.dtd">
<!-- Creator: CorelDRAW X8 -->
<svg xmlns="http://www.w3.org/2000/svg" xml:space="preserve" width="210mm" height="297mm" version="1.1" style="shape-rendering:geometricPrecision; text-rendering:geometricPrecision; image-rendering:optimizeQuality; fill-rule:evenodd; clip-rule:evenodd"
viewBox="0 0 21000 29700"
 xmlns:xlink="http://www.w3.org/1999/xlink">
 <defs>
  <style type="text/css">
   <![CDATA[
    .fil1 {fill:#373435}
    .fil0 {fill:#373435;fill-rule:nonzero}
   ]]>
  </style>
 </defs>
 <g id="Camada_x0020_1">
  <metadata id="CorelCorpID_0Corel-Layer"/>
  <g id="_2643959559616">
   <path class="fil0" d="M6915 15328l-9 0 -277 -745 -329 0 0 22 66 0c52,0 89,10 94,59l0 654c0,140 -50,184 -190,184l0 23 414 0 0 -23 -10 0c-140,0 -185,-44 -185,-184l0 -645 7 0 271 722c22,59 48,117 110,117l6 0 280 -839 8 0 0 829 -105 0 0 23 376 0 0 -23 -120 0 0 -896 120 0 0 -23 -279 0 -248 745zm1820 174l-107 0 0 23 371 0 0 -23 -103 0 -293 -948 -4 0c-54,0 -68,38 -85,89l-237 682c-36,106 -75,177 -187,177l0 23 429 0 0 -23 -24 0c-99,0 -199,-2 -199,-100 0,-26 4,-59 16,-91l46 -137 277 0 100 328zm-235 -739l9 0 119 388 -261 0 133 -388zm1991 598c-19,83 -50,116 -71,116 -24,0 -32,-20 -32,-91l0 -67c0,-190 -32,-281 -219,-281l0 -7c151,-20 227,-113 227,-242 0,-196 -198,-206 -375,-206l-349 0 0 23 105 0 0 896 -105 0 0 23 377 0 0 -23 -121 0 0 -455 105 0c134,0 201,56 201,225l0 95c0,120 51,173 116,173 90,0 145,-66 167,-173l-26 -6zm-257 -562c0,177 -54,225 -213,225l-93 0 0 -418 73 0c153,0 233,22 233,193zm1167 262c0,-229 6,-479 235,-479 168,0 226,145 250,311l24 0 0 -339 -18 0c-4,32 -16,49 -49,49 -44,0 -107,-49 -220,-49 -255,0 -399,241 -399,496 0,262 131,504 391,504 195,0 308,-132 321,-326l-26 -3c-13,168 -100,296 -269,296 -211,0 -240,-248 -240,-460zm1658 493c270,0 410,-235 410,-504 0,-264 -146,-496 -410,-496 -264,0 -410,232 -410,496 0,269 140,504 410,504zm0 -27c-226,0 -233,-251 -233,-477 0,-221 13,-468 233,-468 220,0 233,247 233,468 0,220 -13,477 -233,477zm1448 0c-200,0 -277,-145 -301,-328l-24 0 15 355 17 0c5,-32 16,-49 50,-49 43,0 113,49 229,49 176,0 318,-111 318,-288 0,-334 -504,-247 -504,-515 0,-104 68,-169 173,-169 163,0 243,127 271,289l23 0 0 -317 -18 0c-4,32 -16,49 -49,49 -43,0 -127,-49 -240,-49 -166,0 -270,96 -270,261 0,333 504,246 504,514 0,121 -74,198 -194,198z"/>
   <path class="fil0" d="M7913 13312l-160 0 0 358 164 0c82,0 133,-37 133,-99 0,-47 -28,-82 -76,-90 39,-10 62,-40 62,-80 0,-55 -47,-89 -123,-89zm-4 146l-87 0 0 -87 87 0c36,-1 57,15 57,43 0,28 -21,44 -57,44zm0 153l-87 0 0 -95 87 0c44,0 70,18 70,47 0,30 -26,48 -70,48zm740 59l74 0 -156 -358 -71 0 -157 358 71 0 32 -75 175 0 32 75zm-183 -134l64 -151 62 151 -126 0zm726 -224l-159 0 0 358 164 0c82,0 132,-37 132,-99 0,-47 -28,-82 -76,-90 39,-10 63,-40 63,-80 0,-55 -48,-89 -124,-89zm-4 146l-87 0 0 -87 87 0c36,-1 57,15 57,43 0,28 -21,44 -57,44zm0 153l-87 0 0 -95 87 0c44,0 70,18 70,47 0,30 -26,48 -70,48zm740 59l74 0 -156 -358 -71 0 -157 358 71 0 32 -75 175 0 32 75zm-183 -134l64 -151 63 151 -127 0zm567 -224l0 358 223 0 0 -62 -155 0 0 -296 -68 0zm706 -2c-108,0 -191,77 -191,181 0,103 83,182 191,182 109,0 192,-79 192,-182 0,-103 -83,-181 -192,-181zm1 61c66,0 120,52 120,120 0,68 -54,121 -120,121 -66,0 -122,-53 -122,-121 0,-68 56,-120 122,-120zm820 299l-79 -119c47,-19 72,-60 72,-116 0,-79 -53,-123 -146,-123l-150 0 0 358 69 0 0 -105 81 0c5,0 9,0 13,-1l62 106 78 0zm-234 -298l81 0c51,0 80,21 80,65 0,45 -29,67 -80,67l-81 0 0 -132zm568 -60l0 358 69 0 0 -358 -69 0zm649 94l28 -60c-34,-22 -82,-38 -130,-38 -80,0 -134,40 -134,103 0,128 193,85 193,160 0,25 -23,39 -62,39 -38,0 -87,-20 -124,-52l-29 58c39,34 95,57 152,57 79,0 138,-39 138,-106 0,-129 -193,-89 -193,-162 0,-22 21,-34 54,-34 27,0 69,12 107,35zm591 -184l-66 -26 -54 79 57 0 63 -53zm35 448l74 0 -156 -358 -71 0 -157 358 71 0 32 -75 175 0 32 75zm-183 -134l64 -151 63 151 -127 0z"/>
   <path class="fil0" d="M8680 16155l-149 0 0 358 146 0c111,0 190,-74 190,-179 0,-105 -79,-179 -187,-179zm1 298l-82 0 0 -238 80 0c67,0 118,49 118,119 0,70 -50,119 -116,119zm528 -298l0 358 270 0 0 -60 -201 0 0 -90 174 0 0 -60 -174 0 0 -88 194 0 0 -60 -263 0zm1205 -2c-108,0 -191,77 -191,181 0,103 83,182 191,182 108,0 191,-79 191,-182 0,-103 -83,-181 -191,-181zm1 61c66,0 120,52 120,120 0,68 -54,121 -120,121 -66,0 -122,-53 -122,-121 0,-68 56,-120 122,-120zm525 -59l121 174 -129 184 80 0 91 -128 91 128 83 0 -131 -187 121 -171 -82 0 -82 117 -83 -117 -80 0zm754 209l0 -209 -68 0 0 209c0,94 61,152 159,152 98,0 157,-58 157,-152l0 -209 -68 0 0 209c0,57 -35,91 -89,91 -54,0 -91,-34 -91,-91zm612 -209l0 358 64 0 0 -256 106 219 44 0 106 -219 1 256 62 0 0 -358 -79 0 -112 230 -113 -230 -79 0z"/>
   <polygon class="fil1" points="7243,13478 7244,13569 4587,13569 4587,16292 7748,16292 7748,16382 4496,16383 4496,13478 "/>
   <polygon class="fil1" points="13762,13478 13762,13569 16406,13569 16406,16292 13229,16292 13229,16382 16496,16382 16496,13478 "/>
  </g>
 </g>
</svg>
